<?xml version="1.0" encoding="UTF-8" standalone="no"?>
<!-- Created with Inkscape (http://www.inkscape.org/) -->

<svg
   width="63.999996"
   height="63.999996"
   viewBox="0 0 21.333332 21.333332"
   version="1.1"
   id="svg5"
   xml:space="preserve"
   xmlns="http://www.w3.org/2000/svg"
   xmlns:svg="http://www.w3.org/2000/svg"><defs
     id="defs2"><filter
       style="color-interpolation-filters:sRGB"
       id="filter3198"
       x="-0.02828004"
       y="-0.02828004"
       width="1.0616559"
       height="1.0616559"><feFlood
         flood-opacity="0.498039"
         flood-color="rgb(0,0,0)"
         result="flood"
         id="feFlood3188" /><feComposite
         in="flood"
         in2="SourceGraphic"
         operator="in"
         result="composite1"
         id="feComposite3190" /><feGaussianBlur
         in="composite1"
         stdDeviation="0.1"
         result="blur"
         id="feGaussianBlur3192" /><feOffset
         dx="0.1"
         dy="0.1"
         result="offset"
         id="feOffset3194" /><feComposite
         in="SourceGraphic"
         in2="offset"
         operator="over"
         result="composite2"
         id="feComposite3196" /></filter><filter
       style="color-interpolation-filters:sRGB"
       id="filter3210"
       x="-0.00039904274"
       y="-0.0003003352"
       width="1.0009644"
       height="1.0007257"><feFlood
         flood-opacity="0.498039"
         flood-color="rgb(0,0,0)"
         result="flood"
         id="feFlood3200" /><feComposite
         in="flood"
         in2="SourceGraphic"
         operator="in"
         result="composite1"
         id="feComposite3202" /><feGaussianBlur
         in="composite1"
         stdDeviation="0.1"
         result="blur"
         id="feGaussianBlur3204" /><feOffset
         dx="0.1"
         dy="0.1"
         result="offset"
         id="feOffset3206" /><feComposite
         in="SourceGraphic"
         in2="offset"
         operator="over"
         result="composite2"
         id="feComposite3208" /></filter></defs><g
     id="layer1"><path
       style="opacity:1;fill:#a20348;fill-opacity:1;stroke:#ffebee;stroke-width:0.629921;stroke-linecap:square;stroke-linejoin:miter;stroke-dasharray:none;stroke-dashoffset:0;stroke-opacity:1;paint-order:normal;filter:url(#filter3198)"
       id="rect2616"
       width="19.623753"
       height="19.623753"
       x="0.85479021"
       y="0.85479021"
       d="M 0.85479021,0.85479021 H 20.478543 V 20.478543 H 0.85479021 Z" /><g
       transform="matrix(0.01422585,0,0,0.01422585,10.665104,10.669611)"
       id="g99"
       style="filter:url(#filter3210)">
<g
   vector-effect="non-scaling-stroke"
   id="g97">
		<g
   transform="scale(1.56)"
   id="g19">
<path
   style="opacity:1;fill:#ffffff;fill-rule:nonzero;stroke:none;stroke-width:1;stroke-linecap:butt;stroke-linejoin:miter;stroke-miterlimit:4;stroke-dasharray:none;stroke-dashoffset:0"
   vector-effect="non-scaling-stroke"
   transform="translate(-192.69,-256)"
   d="m 221.625,406.424 c 0.428,-0.063 0.847,-0.136 1.267,-0.202 0.309,-0.022 0.626,-0.059 0.921,-0.059 l 0.029,-0.1 c 91.588,-14.893 161.534,-94.35 161.534,-190.16 0,-95.403 -33.6,-150.357 -68.96,-215.904 H 290.07 c 4.352,8.221 8.718,16.218 12.96,24.038 26.362,48.452 49.712,91.426 56.861,152.239 -12.025,-1.727 -25.912,-2.773 -42.62,-2.773 -65.021,0 -87.369,15.722 -123.06,26.524 -23.88,-8.774 -48.615,-17.235 -96.323,-17.235 -33.339,0 -55.448,4.135 -73.897,9.617 C 28.619,122.827 53.714,76.665 82.329,24.037 86.592,16.218 90.944,8.221 95.303,0 H 68.971 C 33.578,65.546 0,120.501 0,215.904 c 0,95.811 69.936,175.268 161.531,190.16 l 0.015,0.1 c 0.316,0 0.618,0.037 0.935,0.059 0.412,0.066 0.839,0.139 1.266,0.202 6.259,1.392 10.147,7.003 10.147,13.715 v 45.713 c 0,7.474 -5.036,15.644 -12.348,15.644 l -32.113,6.642 c -6.193,0 -11.237,4.915 -11.237,10.971 v 1.918 c 0,6.06 5.044,10.972 11.237,10.972 h 61.699 3.115 61.677 c 6.215,0 11.244,-4.912 11.244,-10.972 v -1.918 c 0,-6.056 -5.029,-10.971 -11.244,-10.971 l -32.113,-6.642 c -7.298,0 -12.334,-8.17 -12.334,-15.644 V 420.14 c 0.001,-6.712 3.882,-12.324 10.148,-13.716 z"
   stroke-linecap="round"
   id="path17" />
</g>
		<g
   transform="matrix(1.56,0,0,1.56,151.76,0)"
   id="g23">
<path
   style="opacity:1;fill:#e6edef;fill-rule:nonzero;stroke:none;stroke-width:1;stroke-linecap:butt;stroke-linejoin:miter;stroke-miterlimit:4;stroke-dasharray:none;stroke-dashoffset:0"
   vector-effect="non-scaling-stroke"
   transform="translate(-289.81,-256)"
   d="m 267.169,501.028 v -1.918 c 0,-6.056 -5.029,-10.971 -11.244,-10.971 l -32.113,-6.642 c -7.298,0 -12.334,-8.17 -12.334,-15.644 V 420.14 c 0,-6.712 3.881,-12.323 10.147,-13.715 0.428,-0.063 0.847,-0.136 1.267,-0.202 0.309,-0.022 0.626,-0.059 0.921,-0.059 l 0.029,-0.1 c 91.588,-14.893 161.534,-94.35 161.534,-190.16 0,-95.403 -33.6,-150.357 -68.96,-215.904 H 290.07 c 4.352,8.221 8.718,16.218 12.96,24.038 26.362,48.452 49.712,91.426 56.861,152.239 -12.025,-1.727 -25.912,-2.773 -42.62,-2.773 -65.013,0 -87.361,15.714 -123.023,26.512 V 512 h 61.677 c 6.215,0 11.244,-4.912 11.244,-10.972 z"
   stroke-linecap="round"
   id="path21" />
</g>
		<g
   transform="matrix(1.56,0,0,1.56,-130.65,-93.14)"
   id="g27">
<path
   style="opacity:1;fill:#784420;fill-rule:nonzero;stroke:none;stroke-width:1;stroke-linecap:butt;stroke-linejoin:miter;stroke-miterlimit:4;stroke-dasharray:none;stroke-dashoffset:0"
   vector-effect="non-scaling-stroke"
   transform="translate(-109.07,-196.39)"
   d="m 23.991,192.41 c -0.023,0.244 -0.044,0.49 -0.063,0.74 23.556,8.63 48.246,16.837 95.233,16.837 34.034,0 56.368,-4.308 75.049,-9.959 -23.88,-8.774 -48.615,-17.235 -96.323,-17.235 -33.338,0 -55.446,4.135 -73.896,9.617 z"
   stroke-linecap="round"
   id="path25" />
</g>
		<g
   transform="matrix(1.56,0,0,1.56,-1.17,-243.73)"
   id="g31">
<path
   style="opacity:0.37;fill:#ffffff;fill-rule:nonzero;stroke:none;stroke-width:1;stroke-linecap:butt;stroke-linejoin:miter;stroke-miterlimit:4;stroke-dasharray:none;stroke-dashoffset:0"
   vector-effect="non-scaling-stroke"
   transform="translate(-191.94,-100.01)"
   d="M 359.891,176.276 C 352.741,115.463 329.391,72.49 303.03,24.037 298.789,16.217 294.422,8.22 290.07,-0.001 H 95.303 C 90.944,8.22 86.592,16.217 82.328,24.037 53.713,76.665 28.618,122.827 23.99,192.409 c 18.45,-5.482 40.559,-9.617 73.897,-9.617 47.708,0 72.443,8.461 96.323,17.235 35.691,-10.802 58.039,-26.524 123.06,-26.524 16.709,0.001 30.596,1.047 42.621,2.773 z"
   stroke-linecap="round"
   id="path29" />
</g>
		<g
   transform="matrix(1.56,0,0,1.56,-62.84,-94.94)"
   id="g35">
<path
   style="opacity:1;fill:#f5f6f6;fill-rule:nonzero;stroke:none;stroke-width:1;stroke-linecap:butt;stroke-linejoin:miter;stroke-miterlimit:4;stroke-dasharray:none;stroke-dashoffset:0"
   vector-effect="non-scaling-stroke"
   transform="translate(-152.47,-195.24)"
   d="m 214.777,228.583 c 1.37,9.12 -4.934,17.603 -14.057,18.961 l -79.225,11.764 c -9.109,1.355 -17.606,-4.934 -18.947,-14.046 l -12.392,-83.36 c -1.348,-9.119 4.948,-17.606 14.057,-18.957 l 79.232,-11.775 c 9.116,-1.358 17.607,4.934 18.954,14.054 z"
   stroke-linecap="round"
   id="path33" />
</g>
		<g
   transform="matrix(1.56,0,0,1.56,-0.01,36.62)"
   id="g39">
<path
   style="opacity:1;fill:#d8282d;fill-rule:nonzero;stroke:none;stroke-width:1;stroke-linecap:butt;stroke-linejoin:miter;stroke-miterlimit:4;stroke-dasharray:none;stroke-dashoffset:0"
   vector-effect="non-scaling-stroke"
   transform="translate(-192.68,-279.44)"
   d="m 317.271,173.504 c -99.047,0 -99.047,36.483 -198.109,36.483 -46.987,0 -71.677,-8.207 -95.233,-16.837 -0.468,7.312 -0.718,14.889 -0.718,22.754 0,93.443 76.025,169.465 169.461,169.465 93.466,0 169.48,-76.022 169.48,-169.465 0,-14.094 -0.81,-27.227 -2.261,-39.627 -12.025,-1.727 -25.912,-2.773 -42.62,-2.773 z"
   stroke-linecap="round"
   id="path37" />
</g>
		<g
   transform="matrix(1.56,0,0,1.56,-57.19,-45.07)"
   id="g43">
<path
   style="opacity:0.55;fill:#c11c27;fill-rule:nonzero;stroke:none;stroke-width:1;stroke-linecap:butt;stroke-linejoin:miter;stroke-miterlimit:4;stroke-dasharray:none;stroke-dashoffset:0"
   vector-effect="non-scaling-stroke"
   transform="translate(-156.08,-227.16)"
   d="m 97.203,209.316 5.346,35.945 c 1.341,9.112 9.838,15.401 18.947,14.046 l 79.225,-11.764 c 9.123,-1.358 15.427,-9.841 14.057,-18.961 l -5.014,-33.759 c -22.224,7.986 -46.677,15.162 -90.601,15.162 -7.925,0.002 -15.193,-0.238 -21.96,-0.669 z"
   stroke-linecap="round"
   id="path41" />
</g>
		<g
   transform="matrix(1.56,0,0,1.56,81.04,-145.64)"
   id="g47">
<path
   style="opacity:1;fill:#ffffff;fill-rule:nonzero;stroke:none;stroke-width:1;stroke-linecap:butt;stroke-linejoin:miter;stroke-miterlimit:4;stroke-dasharray:none;stroke-dashoffset:0"
   vector-effect="non-scaling-stroke"
   transform="translate(-244.55,-162.79)"
   d="m 308.266,163.073 c 2.341,-8.917 -2.99,-18.041 -11.9,-20.372 l -77.479,-20.32 c -8.924,-2.341 -18.034,2.993 -20.375,11.899 l -18.225,69.476 c 42.238,-9.834 61.722,-28.048 125.203,-30.062 z"
   stroke-linecap="round"
   id="path45" />
</g>
		<g
   transform="matrix(1.56,0,0,1.56,75.54,-63.48)"
   id="g51">
<path
   style="opacity:1;fill:#e07888;fill-rule:nonzero;stroke:none;stroke-width:1;stroke-linecap:butt;stroke-linejoin:miter;stroke-miterlimit:4;stroke-dasharray:none;stroke-dashoffset:0"
   vector-effect="non-scaling-stroke"
   transform="translate(-241.04,-215.37)"
   d="m 189.041,236.175 77.48,20.32 c 8.917,2.345 18.034,-2.993 20.375,-11.911 l 18.593,-70.889 c -63.481,2.014 -82.965,20.228 -125.203,30.062 l -3.152,12.04 c -2.341,8.917 2.983,18.04 11.907,20.378 z"
   stroke-linecap="round"
   id="path49" />
</g>
		<g
   transform="matrix(1.56,0,0,1.56,-109.73,-317.48)"
   id="g55">
<polygon
   style="opacity:0.32;fill:#ffffff;fill-rule:nonzero;stroke:none;stroke-width:1;stroke-linecap:butt;stroke-linejoin:miter;stroke-miterlimit:4;stroke-dasharray:none;stroke-dashoffset:0"
   vector-effect="non-scaling-stroke"
   points="-8.14,-48.75 31.34,-48.75 -31.34,48.75 "
   id="polygon53" />
</g>
		<g
   transform="matrix(1.56,0,0,1.56,66.9,69.95)"
   id="g59">
<path
   style="opacity:0.55;fill:#c11c27;fill-rule:nonzero;stroke:none;stroke-width:1;stroke-linecap:butt;stroke-linejoin:miter;stroke-miterlimit:4;stroke-dasharray:none;stroke-dashoffset:0"
   vector-effect="non-scaling-stroke"
   transform="translate(-235.5,-300.76)"
   d="m 134.433,357.159 c 17.82,7.919 37.54,12.326 58.239,12.326 77.229,0 140.446,-61.066 143.899,-137.441 z"
   stroke-linecap="round"
   id="path57" />
</g>
		<g
   transform="matrix(1.56,0,0,1.56,66.9,69.95)"
   id="g63">
<path
   style="opacity:0.55;fill:#c11c27;fill-rule:nonzero;stroke:none;stroke-width:1;stroke-linecap:butt;stroke-linejoin:miter;stroke-miterlimit:4;stroke-dasharray:none;stroke-dashoffset:0"
   vector-effect="non-scaling-stroke"
   transform="translate(-235.5,-300.76)"
   d="m 134.433,357.159 c 17.82,7.919 37.54,12.326 58.239,12.326 77.229,0 140.446,-61.066 143.899,-137.441 z"
   stroke-linecap="round"
   id="path61" />
</g>
		<g
   transform="matrix(1.56,0,0,1.56,-0.02,205.78)"
   id="g67">
<path
   style="opacity:1;fill:#ffffff;fill-rule:nonzero;stroke:#070001;stroke-width:1;stroke-linecap:butt;stroke-linejoin:miter;stroke-miterlimit:10;stroke-dasharray:none;stroke-dashoffset:0"
   vector-effect="non-scaling-stroke"
   transform="translate(-192.67,-387.7)"
   d="M 192.672,387.699"
   stroke-linecap="round"
   id="path65" />
</g>
		<g
   transform="matrix(1.56,0,0,1.56,-0.02,208.48)"
   id="g71">
<path
   style="opacity:1;fill:#ffffff;fill-rule:nonzero;stroke:#070001;stroke-width:1;stroke-linecap:butt;stroke-linejoin:miter;stroke-miterlimit:10;stroke-dasharray:none;stroke-dashoffset:0"
   vector-effect="non-scaling-stroke"
   transform="translate(-192.67,-389.43)"
   d="M 192.672,389.426"
   stroke-linecap="round"
   id="path69" />
</g>
		<g
   transform="matrix(1.56,0,0,1.56,-0.02,239.33)"
   id="g75">
<path
   style="opacity:1;fill:#ffffff;fill-rule:nonzero;stroke:#070001;stroke-width:1;stroke-linecap:butt;stroke-linejoin:miter;stroke-miterlimit:10;stroke-dasharray:none;stroke-dashoffset:0"
   vector-effect="non-scaling-stroke"
   transform="translate(-192.67,-409.17)"
   d="M 192.672,409.168"
   stroke-linecap="round"
   id="path73" />
</g>
		<g
   transform="matrix(1.56,0,0,1.56,-0.02,329.1)"
   id="g79">
<path
   style="opacity:1;fill:#ffffff;fill-rule:nonzero;stroke:#070001;stroke-width:1;stroke-linecap:butt;stroke-linejoin:miter;stroke-miterlimit:10;stroke-dasharray:none;stroke-dashoffset:0"
   vector-effect="non-scaling-stroke"
   transform="translate(-192.67,-466.62)"
   d="M 192.672,466.622"
   stroke-linecap="round"
   id="path77" />
</g>
		<g
   transform="matrix(1.56,0,0,1.56,-0.02,359.93)"
   id="g83">
<path
   style="opacity:1;fill:#ffffff;fill-rule:nonzero;stroke:#070001;stroke-width:1;stroke-linecap:butt;stroke-linejoin:miter;stroke-miterlimit:10;stroke-dasharray:none;stroke-dashoffset:0"
   vector-effect="non-scaling-stroke"
   transform="translate(-192.67,-486.36)"
   d="M 192.672,486.356"
   stroke-linecap="round"
   id="path81" />
</g>
		<g
   transform="matrix(1.56,0,0,1.56,-0.02,362.65)"
   id="g87">
<path
   style="opacity:1;fill:#ffffff;fill-rule:nonzero;stroke:#070001;stroke-width:1;stroke-linecap:butt;stroke-linejoin:miter;stroke-miterlimit:10;stroke-dasharray:none;stroke-dashoffset:0"
   vector-effect="non-scaling-stroke"
   transform="translate(-192.67,-488.1)"
   d="M 192.672,488.098"
   stroke-linecap="round"
   id="path85" />
</g>
		<g
   transform="matrix(1.56,0,0,1.56,-0.02,362.65)"
   id="g91">
<path
   style="opacity:1;fill:#ffffff;fill-rule:nonzero;stroke:#070001;stroke-width:1;stroke-linecap:butt;stroke-linejoin:miter;stroke-miterlimit:10;stroke-dasharray:none;stroke-dashoffset:0"
   vector-effect="non-scaling-stroke"
   transform="translate(-192.67,-488.1)"
   d="M 192.672,488.098"
   stroke-linecap="round"
   id="path89" />
</g>
		<g
   transform="matrix(1.56,0,0,1.56,-0.02,205.78)"
   id="g95">
<path
   style="opacity:1;fill:#ffffff;fill-rule:nonzero;stroke:#070001;stroke-width:1;stroke-linecap:butt;stroke-linejoin:miter;stroke-miterlimit:10;stroke-dasharray:none;stroke-dashoffset:0"
   vector-effect="non-scaling-stroke"
   transform="translate(-192.67,-387.7)"
   d="M 192.672,387.699"
   stroke-linecap="round"
   id="path93" />
</g>
</g>
</g></g></svg>
